<svg xmlns="http://www.w3.org/2000/svg" version="1.1" xmlns:xlink="http://www.w3.org/1999/xlink"
    xmlns:svgjs="http://svgjs.dev/svgjs" width="1000" height="1235" viewBox="0 0 1000 1235">
    <g transform="matrix(1,0,0,1,0.382501947759863,0.5)">
        <svg viewBox="0 0 200 247" data-background-color="#ffffff"
            preserveAspectRatio="xMidYMid meet" height="1235" width="1000"
            xmlns="http://www.w3.org/2000/svg" xmlns:xlink="http://www.w3.org/1999/xlink">
            <g id="tight-bounds"
                transform="matrix(1,0,0,1,-0.07649961044799625,-0.09999999999999432)">
                <svg viewBox="0 0 200.15268449197862 247.2" height="247.2"
                    width="200.15268449197862">
                    <g>
                        <svg></svg>
                    </g>
                    <g>
                        <svg viewBox="0 0 200.15268449197862 247.2" height="247.2"
                            width="200.15268449197862">
                            <g transform="matrix(1,0,0,1,0,47.215199999999996)">
                                <svg viewBox="0 0 200.15268449197862 152.7696" height="152.7696"
                                    width="200.15268449197862">
                                    <g>
                                        <svg viewBox="0 0 200.15268449197862 152.7696"
                                            height="152.7696" width="200.15268449197862">
                                            <g>
                                                <svg viewBox="0 0 200.15268449197862 152.7696"
                                                    height="152.7696" width="200.15268449197862">
                                                    <g>
                                                        <svg
                                                            viewBox="0 0 200.15268449197862 152.7696"
                                                            height="152.7696"
                                                            width="200.15268449197862">
                                                            <g>
                                                                <svg
                                                                    viewBox="0 0 200.15268449197862 152.7696"
                                                                    height="152.7696"
                                                                    width="200.15268449197862">
                                                                    <g>
                                                                        <svg
                                                                            viewBox="0 0 200.15268449197862 152.7696"
                                                                            height="152.7696"
                                                                            width="200.15268449197862">
                                                                            <g
                                                                                transform="matrix(1,0,0,1,0,0)">
                                                                                <svg
                                                                                    width="200.15268449197862"
                                                                                    viewBox="4.550000190734863 -37.099998474121094 49 37.39999771118164"
                                                                                    height="152.7696"
                                                                                    data-palette-color="#0023ff">
                                                                                    <path
                                                                                        d="M18.6-26.75Q22.45-26.75 25.5-25.05 28.55-23.35 30.28-20.3 32-17.25 32-13.25L32-13.25Q32-9.25 30.28-6.18 28.55-3.1 25.5-1.4 22.45 0.3 18.6 0.3L18.6 0.3Q15.65 0.3 13.2-0.85 10.75-2 9.15-4.2L9.15-4.2 9.15 0 4.55 0 4.55-37.1 9.35-37.1 9.35-22.5Q10.95-24.6 13.35-25.68 15.75-26.75 18.6-26.75L18.6-26.75ZM18.2-3.9Q20.75-3.9 22.78-5.08 24.8-6.25 25.98-8.38 27.15-10.5 27.15-13.25L27.15-13.25Q27.15-16 25.98-18.13 24.8-20.25 22.78-21.4 20.75-22.55 18.2-22.55L18.2-22.55Q15.7-22.55 13.65-21.4 11.6-20.25 10.45-18.13 9.3-16 9.3-13.25L9.3-13.25Q9.3-10.5 10.45-8.38 11.6-6.25 13.65-5.08 15.7-3.9 18.2-3.9L18.2-3.9ZM52.05-5L53.55-1.55Q52.5-0.65 50.95-0.18 49.4 0.3 47.75 0.3L47.75 0.3Q43.75 0.3 41.55-1.85 39.35-4 39.35-8L39.35-8 39.35-22.55 34.85-22.55 34.85-26.5 39.35-26.5 39.35-32.3 44.15-32.3 44.15-26.5 51.75-26.5 51.75-22.55 44.15-22.55 44.15-8.2Q44.15-6.05 45.22-4.9 46.3-3.75 48.3-3.75L48.3-3.75Q50.5-3.75 52.05-5L52.05-5Z"
                                                                                        opacity="1"
                                                                                        transform="matrix(1,0,0,1,0,0)"
                                                                                        fill="#0023ff"
                                                                                        class="undefined-text-0"
                                                                                        data-fill-palette-color="primary"
                                                                                        id="text-0"></path>
                                                                                </svg>
                                                                            </g>
                                                                        </svg>
                                                                    </g>
                                                                </svg>
                                                            </g>
                                                        </svg>
                                                    </g>
                                                    <g></g>
                                                </svg>
                                            </g>
                                        </svg>
                                    </g>
                                </svg>
                            </g>
                            <path
                                d="M0 41.215L0 1 200.153 1 200.153 41.215 186.376 41.215 186.376 14.777 13.777 14.777 13.777 41.215 0 41.215M0 205.985L0 246.2 200.153 246.2 200.153 205.985 186.376 205.985 186.376 232.423 13.777 232.423 13.777 205.985 0 205.985"
                                fill="#0023ff" stroke="transparent"
                                data-fill-palette-color="primary"></path>
                        </svg>
                    </g>
                    <defs></defs>
                </svg>
                <rect width="200.15268449197862" height="247.2" fill="none" stroke="none"
                    visibility="hidden"></rect>
            </g>
        </svg>
    </g>
</svg>